<svg width="1648" height="3170" xmlns="http://www.w3.org/2000/svg">
 <defs>
  <clipPath id="_clipPath_HIzr4vQgCXzpepCgVbFXr2tSvnMOAqV4">
   <rect id="svg_1" height="3169.734" width="1648.09" y="-232" x="-184.09"/>
  </clipPath>
 </defs>
 <g>
  <title>background</title>
  <rect fill="none" id="canvas_background" height="3172" width="1650" y="-1" x="-1"/>
 </g>
 <g>
  <title>Layer 1</title>
  <g id="svg_2" clip-path="url(#_clipPath_HIzr4vQgCXzpepCgVbFXr2tSvnMOAqV4)">
   <g id="svg_3">
    <g id="svg_4">
     <g id="svg_5">
      <path id="svg_6" fill="#ff85ee" fill-rule="evenodd" d="m1414.751752,868.476634c0.227,-0.008 0.413,-0.068 0.436,-0.006c0.127,0.348 0.214,0.725 0.316,1.093c-0.132,0.067 -0.371,0.213 -0.379,0.189c-0.126,-0.352 -0.221,-0.726 -0.373,-1.276zm4.233,-2.699c11.193,-21.05 -7.264,-39.993 -35.266,-45.753c-28.003,-5.76 -61.905,33.763 -57.239,47.523c10.158,29.954 81.313,19.28 92.505,-1.77z"/>
      <path id="svg_7" fill="#ff85ee" fill-rule="evenodd" d="m852.904752,2017.433634c0.227,-0.008 0.413,-0.069 0.436,-0.007c0.127,0.348 0.214,0.725 0.315,1.093c-0.131,0.067 -0.37,0.213 -0.378,0.189c-0.126,-0.352 -0.221,-0.726 -0.373,-1.275zm4.233,-2.7c11.193,-21.05 -7.264,-39.993 -35.267,-45.753c-28.002,-5.76 -61.904,33.764 -57.238,47.523c10.158,29.954 81.313,19.28 92.505,-1.77z"/>
      <path id="svg_8" fill="#67ff6b" fill-rule="evenodd" d="m1288.883752,1036.214634c9.074,1.203 16.871,5.611 20.81,13.627c3.814,7.763 -0.26,15.16 -5.151,21.906c-4.499,6.206 -8.914,11.688 -17.416,12.465c-10.917,0.997 -19.796,-6.99 -18.828,-18.053c0.846,-9.664 4.286,-18.431 10.206,-26.243c2.744,-3.62 6.457,-3.447 10.379,-3.702z"/>
      <path id="svg_9" fill="#67ff6b" fill-rule="evenodd" d="m512.698752,1237.240634c1.696,-4.089 6.883,-8.841 11.029,-9.373c9.078,-1.164 17.589,6.896 17.305,14.136c-0.236,6.038 -6.23,9.582 -15.705,9.286c-9.475,-0.296 -14.638,-9.207 -12.629,-14.049z"/>
      <path id="svg_10" fill="#ff85ee" fill-rule="evenodd" d="m248.790752,780.089634c-5.469,-0.171 -14.638,-9.206 -12.629,-14.049c1.696,-4.089 6.883,-8.841 11.029,-9.373c9.078,-1.164 17.589,6.897 17.305,14.137c-0.236,6.038 -6.23,9.581 -15.705,9.285z"/>
      <path id="svg_11" fill="#67ff6b" fill-rule="evenodd" d="m1413.120752,1498.204634c13.712,20.854 -24.959,50.826 -53.497,77.47c-28.539,26.645 -92.875,-2.133 -69.826,-28.198c16.959,-19.175 36.864,-36.422 57.906,-50.99c9.06,-6.273 50.506,-20.961 65.417,1.718z"/>
      <path id="svg_12" fill="rgb(172,169,61)" fill-rule="evenodd" d="m1407.573752,2045.024634c2.004,-24.872 17.834,-46.896 39.083,-67.36c13.97,-13.454 29.142,-24.721 51.168,-29.83c39.637,-9.194 73.805,14.655 65.044,46.363c-8.069,29.21 -26.106,53.915 -57.772,71.644c-16.001,8.959 -34.814,14.288 -53.698,15.591c-28.364,1.957 -43.265,-7.34 -43.825,-36.408z"/>
      <path id="svg_13" fill="#67ff6b" fill-rule="evenodd" d="m764.198752,1985.918634c11.018,17.679 19.469,36.133 19.92,60.41c0.81,43.69 -132.861,-58.478 -130.014,-78.605c4.277,-30.233 17.372,-43.809 48.041,-37.905c25.687,7.661 45.295,29.208 62.053,56.1z"/>
      <path id="svg_14" fill="rgb(7,114,152)" fill-rule="evenodd" d="m1641.288752,1197.952634c19.782,31.205 -1.349,60.944 -26.716,88.061c-23.334,24.95 -46.229,46.987 -90.328,50.109c-56.621,4.007 -102.67,-28.1 -97.651,-72.574c4.388,-38.848 22.229,-74.093 52.937,-105.496c14.229,-14.552 33.484,-13.857 53.83,-14.881c47.062,4.836 87.498,22.557 107.928,54.781z"/>
      <path id="svg_15" fill="#67ff6b" fill-rule="evenodd" d="m1272.326752,856.954634c6.455,-16.561 14.872,-32.462 31.822,-48.531c30.503,-28.917 70.164,-34.028 75.905,-9.13c5.29,22.937 0.042,48.894 -19.958,78.472c-10.108,14.946 -24.179,29.273 -40.006,41.131c-23.773,17.81 -40.605,20.728 -53.318,2.927c-8.724,-16.684 -4.263,-39.677 5.555,-64.869z"/>
      <path id="svg_16" fill="#2b97fa" fill-rule="evenodd" d="m1380.464752,2000.315634c0.207,-0.008 0.377,-0.063 0.397,-0.006c0.116,0.317 0.196,0.66 0.288,0.995c-0.12,0.061 -0.338,0.194 -0.345,0.172c-0.114,-0.32 -0.201,-0.661 -0.34,-1.161zm48.084,119.338c52.882,-61.852 -0.003,-121.485 -43.184,-135.861c-43.18,-14.377 -76.54,2.109 -94.431,37.165c-12.179,23.864 84.732,160.548 137.615,98.696z"/>
      <path id="svg_17" fill="#67ff6b" fill-rule="evenodd" d="m416.795752,1965.548634c2.12,-5.111 8.603,-11.051 13.786,-11.716c11.348,-1.455 21.987,8.62 21.632,17.67c-0.296,7.548 -7.788,11.977 -19.632,11.607c-6.836,-0.213 -18.298,-11.508 -15.786,-17.561z"/>
      <path id="svg_18" fill="#2b97fa" fill-rule="evenodd" d="m233.132752,971.655634c7.42,15.208 -0.506,29.701 -10.021,42.917c-8.751,12.16 -17.339,22.9 -33.879,24.421c-21.237,1.954 -38.508,-13.694 -36.626,-35.369c1.646,-18.933 8.338,-36.11 19.855,-51.415c5.337,-7.092 12.559,-6.753 20.19,-7.252c17.652,2.357 32.818,10.993 40.481,26.698z"/>
      <path id="svg_19" fill="#67ff6b" fill-rule="evenodd" d="m150.502752,1715.441634c-26.888,29.996 -15.951,59.36 -5.47,87.529c10.482,28.168 20.506,55.141 -8.21,80.354c-31.819,27.938 -147.799,-69.462 -134.813,-167.885c3.658,-27.731 13.806,-55.918 28.241,-80.15c30.665,-51.473 98.495,-93.264 130.555,-48.588c26.964,37.577 43.475,68.75 -10.303,128.74z"/>
      <path id="svg_20" fill="#ff85ee" fill-rule="evenodd" d="m208.477752,1866.651634c-28.694,22.094 -129.562,-49.528 -129.563,-86.958c-0.001,-27.475 40.889,-60.192 75.575,-41.299c86.458,47.092 82.683,106.162 53.988,128.257z"/>
      <g id="svg_21">
       <path id="svg_22" fill="#67ff6b" fill-rule="evenodd" d="m260.243752,638.819634c3.105,13.153 -41.721,31.243 -67.512,12.835c-7.267,-5.186 -13.689,-12.269 -18.355,-19.968c-9.911,-16.354 -8.282,-42.971 9.859,-44.087c22.777,-1.402 70.403,27.479 76.008,51.22z"/>
       <path id="svg_23" fill="#67ff6b" fill-rule="evenodd" d="m204.328752,221.271634c-4.326,-35.221 30.011,-93.794 58.097,-86.05c28.086,7.744 13.477,36.722 25.87,61.587c7.146,14.338 33.196,26.76 42.416,48.232c7.028,16.366 5.184,46.109 -17.943,60.75c-23.126,14.64 -98.696,-5.178 -108.44,-84.519z"/>
       <path id="svg_24" fill="#2b97fa" fill-rule="evenodd" d="m269.965752,284.304634c17.722,24.579 -6.105,60.217 -36.295,84.753c-15.686,12.748 -36.024,15.419 -54.876,13.017c-36.104,-4.6 -51.702,-36.558 -30.685,-60.614c15.464,-17.698 35.682,1.009 53.955,-15.485c17.207,-15.531 50.18,-46.25 67.901,-21.671z"/>
       <path id="svg_25" fill="#2b97fa" fill-rule="evenodd" d="m472.605752,102.181634c8.589,13.064 -15.636,31.84 -33.514,48.532c-17.878,16.691 -58.182,-1.337 -43.743,-17.665c10.624,-12.013 23.094,-22.817 36.276,-31.943c5.675,-3.93 31.639,-13.132 40.981,1.076z"/>
       <path id="svg_26" fill="#67ff6b" fill-rule="evenodd" d="m1273.452752,91.671634c-30.366,28.351 -98.823,-2.27 -74.297,-30.004c18.045,-20.403 52.928,-64.693 74.294,-60.373c53.257,10.767 30.368,62.026 0.003,90.377z"/>
      </g>
      <path id="svg_27" fill="#67ff6b" fill-rule="evenodd" d="m1434.856752,452.019634c0.253,-0.108 0.438,-0.257 0.49,-0.197c0.295,0.338 0.557,0.727 0.831,1.099c-0.119,0.133 -0.326,0.401 -0.346,0.378c-0.294,-0.343 -0.564,-0.725 -0.975,-1.28zm3.615,-4.89c3.519,-28.659 -25.571,-42.067 -59.734,-36.425c-34.162,5.641 -55.34,65.044 -44.092,78.576c24.487,29.46 100.307,-13.492 103.826,-42.151z"/>
      <path id="svg_28" fill="#67ff6b" fill-rule="evenodd" d="m356.779752,2861.942634c0.197,-0.007 0.359,-0.06 0.379,-0.006c0.11,0.303 0.186,0.631 0.274,0.95c-0.114,0.058 -0.322,0.185 -0.329,0.165c-0.109,-0.306 -0.192,-0.631 -0.324,-1.109zm3.68,-2.347c9.729,-18.298 -6.314,-34.764 -30.656,-39.771c-24.342,-5.007 -53.811,29.349 -49.755,41.31c8.83,26.038 70.682,16.759 80.411,-1.539z"/>
      <path id="svg_29" fill="#ff85ee" fill-rule="evenodd" d="m1254.921752,77.754634c27.643,-37.662 97.136,-18.287 153.168,15.649c29.113,17.632 45.341,46.8 52.809,76.057c14.302,56.031 -26.062,93.878 -75.901,73.428c-36.666,-15.047 -19.626,-53.765 -56.092,-73.557c-34.339,-18.637 -101.626,-53.915 -73.984,-91.577z"/>
      <path id="svg_30" fill="#2b97fa" fill-rule="evenodd" d="m134.075752,2840.489634c28.447,-38.759 99.964,-18.819 157.629,16.105c29.96,18.145 46.661,48.162 54.346,78.272c14.719,57.662 -26.82,96.611 -78.111,75.566c-37.734,-15.485 -20.197,-55.331 -57.725,-75.699c-35.34,-19.18 -104.586,-55.486 -76.139,-94.244z"/>
      <path id="svg_31" fill="#67ff6b" fill-rule="evenodd" d="m1140.738752,263.301634c-11.636,10.863 -37.76,-2.027 -37.761,-20.413c0,-11.239 0.91,-26.187 8.897,-26.186c28.862,0 40.499,35.736 28.864,46.599z"/>
      <path id="svg_32" fill="#67ff6b" fill-rule="evenodd" d="m161.587752,2477.541634c-0.265,-0.01 -0.483,-0.08 -0.51,-0.008c-0.148,0.407 -0.25,0.848 -0.368,1.277c0.153,0.078 0.432,0.249 0.442,0.221c0.147,-0.411 0.258,-0.848 0.436,-1.49zm-4.947,-3.155c-13.08,-24.599 8.488,-46.735 41.212,-53.467c32.724,-6.731 72.341,39.456 66.889,55.535c-11.871,35.004 -95.022,22.531 -108.101,-2.068z"/>
      <path id="svg_33" fill="#2b97fa" fill-rule="evenodd" d="m1347.025752,1723.536634c-7.592,1.006 -14.116,4.695 -17.412,11.402c-3.191,6.495 0.218,12.685 4.31,18.329c3.765,5.193 7.458,9.78 14.573,10.43c9.135,0.834 16.564,-5.849 15.754,-15.106c-0.708,-8.086 -3.586,-15.422 -8.54,-21.958c-2.296,-3.029 -5.403,-2.884 -8.685,-3.097z"/>
      <path id="svg_34" fill="#2b97fa" fill-rule="evenodd" d="m1134.201752,1255.577634c13.123,-0.41 35.127,-22.093 30.305,-33.713c-4.071,-9.813 -16.516,-21.216 -26.465,-22.492c-21.786,-2.794 -42.209,16.549 -41.528,33.923c0.568,14.489 14.951,22.992 37.688,22.282z"/>
      <path id="svg_35" fill="#2b97fa" fill-rule="evenodd" d="m1173.068752,410.700634c9.374,-0.293 25.09,-15.78 21.647,-24.08c-2.908,-7.009 -11.798,-15.154 -18.904,-16.066c-15.561,-1.995 -30.15,11.821 -29.663,24.231c0.406,10.349 10.679,16.423 26.92,15.915z"/>
      <path id="svg_36" fill="#ff85ee" fill-rule="evenodd" d="m237.834752,2505.651634c20.13,22.841 48.06,34.555 75.669,34.669c22.864,0.093 52.105,-5.166 49.702,-41.338c-1.359,-20.442 -33.79,-21.956 -67.669,-50.735c-33.878,-28.78 -52.334,-58.947 -64.364,-61.425c-12.938,-2.666 -22.837,8.518 -24.239,23.112c-2.951,30.71 19.191,82.43 30.901,95.717z"/>
      <path id="svg_37" fill="#67ff6b" fill-rule="evenodd" d="m1077.810752,1805.656634c0.06,-0.03 0.105,-0.07 0.118,-0.054c0.069,0.089 0.131,0.191 0.195,0.289c-0.029,0.036 -0.08,0.108 -0.084,0.102c-0.07,-0.091 -0.133,-0.191 -0.229,-0.337zm0.881,-1.311c0.936,-7.621 -5.986,-11.087 -14.185,-9.478c-8.199,1.609 -13.463,17.452 -10.814,21.009c5.768,7.743 24.063,-3.909 24.999,-11.531z"/>
      <path id="svg_38" fill="#2b97fa" fill-rule="evenodd" d="m1354.105752,2375.704634c3.838,7.866 -0.261,15.362 -5.182,22.197c-4.527,6.289 -8.968,11.843 -17.522,12.63c-10.984,1.011 -19.917,-7.083 -18.944,-18.293c0.852,-9.792 4.313,-18.676 10.27,-26.591c2.76,-3.668 6.495,-3.493 10.442,-3.751c9.129,1.219 16.973,5.686 20.936,13.808z"/>
      <path id="svg_39" fill="rgb(7,114,152)" fill-rule="evenodd" d="m1071.156752,3090.422634c6.454,-16.561 14.871,-32.462 31.821,-48.531c30.504,-28.917 70.164,-34.028 75.906,-9.13c5.29,22.937 0.042,48.894 -19.959,78.472c-10.107,14.946 -24.179,29.273 -40.006,41.131c-23.773,17.81 -40.604,20.728 -53.318,2.927c-8.724,-16.684 -4.262,-39.677 5.556,-64.869z"/>
      <path id="svg_40" fill="#67ff6b" fill-rule="evenodd" d="m713.006752,2606.620634c0.105,-0.004 0.191,-0.032 0.202,-0.003c0.059,0.161 0.1,0.337 0.147,0.507c-0.062,0.031 -0.172,0.099 -0.176,0.088c-0.059,-0.163 -0.103,-0.337 -0.173,-0.592zm1.966,-1.254c5.199,-9.778 -3.374,-18.577 -16.381,-21.252c-13.008,-2.676 -28.755,15.683 -26.587,22.074c4.718,13.913 37.769,8.955 42.968,-0.822z"/>
      <path id="svg_41" fill="rgb(172,169,61)" fill-rule="evenodd" d="m528.488752,3108.930634c14.071,6.776 23.345,18.526 31.171,30.048c7.201,10.601 13.325,20.266 9.967,27.044c-4.312,8.702 -21.447,5.131 -38.066,-8.923c-14.516,-12.276 -26.252,-25.249 -35.177,-38.768c-4.136,-6.265 -1.877,-8.605 -0.167,-11.607c6.731,-4.774 17.742,-4.791 32.272,2.206z"/>
      <path id="svg_42" fill="#67ff6b" fill-rule="evenodd" d="m244.435752,2106.867634c0.119,-0.057 0.207,-0.136 0.231,-0.105c0.136,0.174 0.256,0.374 0.382,0.565c-0.057,0.07 -0.155,0.21 -0.165,0.199c-0.135,-0.177 -0.259,-0.373 -0.448,-0.659zm-11.677,15.187c7.201,-5.4 12.71,-12.133 13.4,-17.747c1.828,-14.891 -11.697,-21.663 -27.716,-18.519c-16.019,3.144 -26.305,34.099 -21.129,41.048c7.021,9.426 23.544,4.142 35.445,-4.782z"/>
      <g id="svg_43">
       <path id="svg_44" fill="#ff85ee" fill-rule="evenodd" d="m1406.311752,2690.549634c-4.355,-10.513 -17.67,-22.731 -28.314,-24.098c-23.307,-2.993 -45.158,17.731 -44.429,36.346c0.608,15.524 15.996,24.635 40.321,23.873c14.04,-0.439 37.58,-23.67 32.422,-36.121z"/>
      </g>
      <polyline stroke-linecap="round" id="svg_46" points="695,1975 695,1975 " stroke-opacity="null" stroke-width="null" stroke="null" fill="none"/>
     </g>
     <path id="svg_45" fill="#67ff6b" fill-rule="evenodd" d="m1316.082752,2868.758634c28.648,26.409 46.535,27.385 115.286,-15.433c68.75,-42.818 75.534,-211.819 11.677,-178.024c-46.979,24.865 -60.132,77.584 -101.517,110.034c-17.82,13.972 -56.602,54.703 -25.446,83.423z"/>
    </g>
   </g>
  </g>
 </g>
</svg>